<?xml version="1.0" encoding="utf-8"?>
<!-- Generator: Adobe Illustrator 19.2.1, SVG Export Plug-In . SVG Version: 6.00 Build 0)  -->
<svg version="1.1" id="Layer_1" xmlns="http://www.w3.org/2000/svg" xmlns:xlink="http://www.w3.org/1999/xlink" x="0px" y="0px"
	 viewBox="0 0 237 237" style="enable-background:new 0 0 237 237;" xml:space="preserve">
<style type="text/css">
	.st0{fill:#FFFFFF;}
	.st1{fill:#F8665E;}
	.st2{fill:none;stroke:#F8665E;stroke-width:2.13;stroke-miterlimit:10;}
	.st3{fill:none;stroke:#000000;stroke-width:2.13;stroke-miterlimit:10;}
	.st4{fill:none;}
	.st5{fill:#F2655F;}
</style>
<title>qrcode</title>
<rect class="st0" width="237" height="237"/>
<path class="st1" d="M6.1,230.9h6.1v-6.1H6.1V230.9 M12.2,230.9h6.1v-6.1h-6.1L12.2,230.9 M18.2,230.9h6.1v-6.1h-6.1V230.9
	 M24.3,230.9h6.1v-6.1h-6.1V230.9 M30.4,230.9h6.1v-6.1h-6.1L30.4,230.9 M36.5,230.9h6.1v-6.1h-6.1V230.9 M42.5,230.9h6.1v-6.1h-6.1
	V230.9 M66.8,230.9h6.1v-6.1h-6.1V230.9 M79,230.9h6.1v-6.1H79V230.9 M85.1,230.9h6.1v-6.1h-6.1V230.9 M97.2,230.9h6.1v-6.1h-6.1
	V230.9 M103.3,230.9h6.1v-6.1h-6.1V230.9 M121.5,230.9h6.1v-6.1h-6.1V230.9 M133.7,230.9h6.1v-6.1h-6.1V230.9 M139.8,230.9h6.1v-6.1
	h-6.1V230.9 M145.8,230.9h6.1v-6.1h-6.1V230.9 M158,230.9h6.1v-6.1H158V230.9 M164.1,230.9h6.1v-6.1h-6.1V230.9 M194.4,230.9h6.1
	v-6.1h-6.1V230.9 M200.5,230.9h6.1v-6.1h-6.1V230.9 M206.6,230.9h6.1v-6.1h-6.1V230.9 M212.7,230.9h6.1v-6.1h-6.1V230.9
	 M218.8,230.9h6.1v-6.1h-6.1V230.9 M224.8,230.9h6.1v-6.1h-6.1V230.9 M6.1,224.8h6.1v-6.1H6.1V224.8 M42.5,224.8h6.1v-6.1h-6.1
	V224.8 M103.3,224.8h6.1v-6.1h-6.1V224.8 M121.5,224.8h6.1v-6.1h-6.1V224.8 M127.6,224.8h6.1v-6.1h-6.1V224.8 M145.8,224.8h6.1v-6.1
	h-6.1V224.8 M170.1,224.8h6.1v-6.1h-6.1V224.8 M176.2,224.8h6.1v-6.1h-6.1V224.8 M182.3,224.8h6.1v-6.1h-6.1V224.8 M200.5,224.8h6.1
	v-6.1h-6.1V224.8 M224.8,224.8h6.1v-6.1h-6.1V224.8 M6.1,218.7h6.1v-6.1H6.1V218.7 M18.2,218.7h6.1v-6.1h-6.1V218.7 M24.3,218.7h6.1
	v-6.1h-6.1V218.7 M30.4,218.7h6.1v-6.1h-6.1L30.4,218.7 M42.5,218.7h6.1v-6.1h-6.1L42.5,218.7 M54.7,218.7h6.1v-6.1h-6.1L54.7,218.7
	 M66.8,218.7h6.1v-6.1h-6.1L66.8,218.7 M79,218.7h6.1v-6.1H79V218.7 M103.3,218.7h6.1v-6.1h-6.1V218.7 M109.4,218.7h6.1v-6.1h-6.1
	V218.7 M115.5,218.7h6.1v-6.1h-6.1V218.7 M121.5,218.7h6.1v-6.1h-6.1V218.7 M133.7,218.7h6.1v-6.1h-6.1V218.7 M139.8,218.7h6.1v-6.1
	h-6.1V218.7 M145.8,218.7h6.1v-6.1h-6.1V218.7 M151.9,218.7h6.1v-6.1h-6.1L151.9,218.7 M158,218.7h6.1v-6.1H158V218.7 M176.2,218.7
	h6.1v-6.1h-6.1V218.7 M194.4,218.7h6.1v-6.1h-6.1V218.7 M212.7,218.7h6.1v-6.1h-6.1V218.7 M224.8,218.7h6.1v-6.1h-6.1V218.7
	 M6.1,212.7h6.1v-6.1H6.1V212.7 M18.2,212.7h6.1v-6.1h-6.1V212.7 M24.3,212.7h6.1v-6.1h-6.1V212.7 M30.4,212.7h6.1v-6.1h-6.1
	L30.4,212.7 M42.5,212.7h6.1v-6.1h-6.1L42.5,212.7 M54.7,212.7h6.1v-6.1h-6.1L54.7,212.7 M60.8,212.7h6.1v-6.1h-6.1V212.7
	 M85.1,212.7h6.1v-6.1h-6.1L85.1,212.7 M121.5,212.7h6.1v-6.1h-6.1L121.5,212.7 M139.8,212.7h6.1v-6.1h-6.1V212.7 M176.2,212.7h6.1
	v-6.1h-6.1V212.7 M188.4,212.7h6.1v-6.1h-6.1V212.7 M194.4,212.7h6.1v-6.1h-6.1V212.7 M200.5,212.7h6.1v-6.1h-6.1V212.7
	 M206.6,212.7h6.1v-6.1h-6.1V212.7 M6.1,206.6h6.1v-6.1H6.1V206.6 M18.2,206.6h6.1v-6.1h-6.1V206.6 M24.3,206.6h6.1v-6.1h-6.1V206.6
	 M30.4,206.6h6.1v-6.1h-6.1L30.4,206.6 M42.5,206.6h6.1v-6.1h-6.1L42.5,206.6 M54.7,206.6h6.1v-6.1h-6.1L54.7,206.6 M60.8,206.6h6.1
	v-6.1h-6.1V206.6 M66.8,206.6h6.1v-6.1h-6.1V206.6 M72.9,206.6H79v-6.1h-6.1L72.9,206.6 M85.1,206.6h6.1v-6.1h-6.1L85.1,206.6
	 M91.2,206.6h6.1v-6.1h-6.1L91.2,206.6 M109.4,206.6h6.1v-6.1h-6.1V206.6 M127.6,206.6h6.1v-6.1h-6.1V206.6 M133.7,206.6h6.1v-6.1
	h-6.1V206.6 M139.8,206.6h6.1v-6.1h-6.1V206.6 M151.9,206.6h6.1v-6.1h-6.1V206.6 M158,206.6h6.1v-6.1H158V206.6 M164.1,206.6h6.1
	v-6.1h-6.1V206.6 M170.1,206.6h6.1v-6.1h-6.1V206.6 M176.2,206.6h6.1v-6.1h-6.1V206.6 M182.3,206.6h6.1v-6.1h-6.1V206.6
	 M188.4,206.6h6.1v-6.1h-6.1V206.6 M194.5,206.6h6.1v-6.1h-6.1V206.6 M200.5,206.6h6.1v-6.1h-6.1V206.6 M212.7,206.6h6.1v-6.1h-6.1
	V206.6 M218.8,206.6h6.1v-6.1h-6.1V206.6 M6.1,200.5h6.1v-6.1H6.1V200.5 M42.5,200.5h6.1v-6.1h-6.1V200.5 M72.9,200.5H79v-6.1h-6.1
	V200.5 M85.1,200.5h6.1v-6.1h-6.1L85.1,200.5 M91.2,200.5h6.1v-6.1h-6.1L91.2,200.5 M97.2,200.5h6.1v-6.1h-6.1V200.5 M103.3,200.5
	h6.1v-6.1h-6.1V200.5 M109.4,200.5h6.1v-6.1h-6.1V200.5 M115.5,200.5h6.1v-6.1h-6.1V200.5 M145.8,200.5h6.1v-6.1h-6.1V200.5
	 M151.9,200.5h6.1v-6.1h-6.1L151.9,200.5 M176.2,200.5h6.1v-6.1h-6.1V200.5 M200.5,200.5h6.1v-6.1h-6.1V200.5 M224.8,200.5h6.1v-6.1
	h-6.1V200.5 M6.1,194.4h6.1v-6.1H6.1V194.4 M12.2,194.4h6.1v-6.1h-6.1L12.2,194.4 M18.2,194.4h6.1v-6.1h-6.1V194.4 M24.3,194.4h6.1
	v-6.1h-6.1V194.4 M30.4,194.4h6.1v-6.1h-6.1L30.4,194.4 M36.5,194.4h6.1v-6.1h-6.1V194.4 M42.5,194.4h6.1v-6.1h-6.1V194.4
	 M72.9,194.4H79v-6.1h-6.1V194.4 M79,194.4h6.1v-6.1H79V194.4 M85.1,194.4h6.1v-6.1h-6.1V194.4 M97.2,194.4h6.1v-6.1h-6.1V194.4
	 M109.4,194.4h6.1v-6.1h-6.1V194.4 M115.4,194.4h6.1v-6.1h-6.1V194.4 M158,194.4h6.1v-6.1H158V194.4 M164.1,194.4h6.1v-6.1h-6.1
	V194.4 M176.2,194.4h6.1v-6.1h-6.1V194.4 M188.4,194.4h6.1v-6.1h-6.1V194.4 M200.5,194.4h6.1v-6.1h-6.1V194.4 M206.6,194.4h6.1v-6.1
	h-6.1V194.4 M224.8,194.4h6.1v-6.1h-6.1V194.4 M54.7,188.4h6.1v-6.1h-6.1V188.4 M60.8,188.4h6.1v-6.1h-6.1V188.4 M97.2,188.4h6.1
	v-6.1h-6.1V188.4 M103.3,188.4h6.1v-6.1h-6.1V188.4 M133.7,188.4h6.1v-6.1h-6.1V188.4 M139.8,188.4h6.1v-6.1h-6.1V188.4
	 M145.8,188.4h6.1v-6.1h-6.1V188.4 M158,188.4h6.1v-6.1H158V188.4 M170.1,188.4h6.1v-6.1h-6.1V188.4 M176.2,188.4h6.1v-6.1h-6.1
	V188.4 M200.5,188.4h6.1v-6.1h-6.1V188.4 M6.1,182.3h6.1v-6.1H6.1V182.3 M18.2,182.3h6.1v-6.1h-6.1V182.3 M24.3,182.3h6.1v-6.1h-6.1
	V182.3 M30.4,182.3h6.1v-6.1h-6.1L30.4,182.3 M42.5,182.3h6.1v-6.1h-6.1L42.5,182.3 M66.8,182.3h6.1v-6.1h-6.1V182.3 M79,182.3h6.1
	v-6.1H79V182.3 M85.1,182.3h6.1v-6.1h-6.1V182.3 M109.4,182.3h6.1v-6.1h-6.1V182.3 M115.5,182.3h6.1v-6.1h-6.1V182.3 M127.6,182.3
	h6.1v-6.1h-6.1V182.3 M151.9,182.3h6.1v-6.1h-6.1L151.9,182.3 M158,182.3h6.1v-6.1H158V182.3 M164.1,182.3h6.1v-6.1h-6.1V182.3
	 M170.1,182.3h6.1v-6.1h-6.1V182.3 M176.2,182.3h6.1v-6.1h-6.1V182.3 M182.3,182.3h6.1v-6.1h-6.1V182.3 M188.4,182.3h6.1v-6.1h-6.1
	V182.3 M194.5,182.3h6.1v-6.1h-6.1V182.3 M200.5,182.3h6.1v-6.1h-6.1V182.3 M206.6,182.3h6.1v-6.1h-6.1V182.3 M212.7,182.3h6.1v-6.1
	h-6.1V182.3 M218.8,182.3h6.1v-6.1h-6.1V182.3 M224.9,182.3h6.1v-6.1h-6.1V182.3 M6.1,176.2h6.1v-6.1H6.1V176.2 M24.3,176.2h6.1
	v-6.1h-6.1V176.2 M48.6,176.2h6.1v-6.1h-6.1V176.2 M72.9,176.2H79v-6.1h-6.1L72.9,176.2 M79,176.2h6.1v-6.1H79V176.2 M97.2,176.2
	h6.1v-6.1h-6.1V176.2 M109.4,176.2h6.1v-6.1h-6.1V176.2 M121.5,176.2h6.1v-6.1h-6.1V176.2 M139.7,176.2h6.1v-6.1h-6.1V176.2
	 M151.9,176.2h6.1v-6.1h-6.1L151.9,176.2 M176.2,176.2h6.1v-6.1h-6.1V176.2 M218.7,176.2h6.1v-6.1h-6.1V176.2 M224.8,176.2h6.1v-6.1
	h-6.1V176.2 M6.1,170.1h6.1v-6.1H6.1V170.1 M42.5,170.1h6.1v-6.1h-6.1V170.1 M48.6,170.1h6.1v-6.1h-6.1L48.6,170.1 M60.8,170.1h6.1
	v-6.1h-6.1V170.1 M91.1,170.1h6.1v-6.1h-6.1L91.1,170.1 M97.2,170.1h6.1v-6.1h-6.1V170.1 M127.6,170.1h6.1v-6.1h-6.1V170.1
	 M139.7,170.1h6.1v-6.1h-6.1V170.1 M164.1,170.1h6.1v-6.1h-6.1V170.1 M170.1,170.1h6.1v-6.1h-6.1V170.1 M194.4,170.1h6.1v-6.1h-6.1
	V170.1 M200.5,170.1h6.1v-6.1h-6.1V170.1 M206.6,170.1h6.1v-6.1h-6.1V170.1 M218.7,170.1h6.1v-6.1h-6.1V170.1 M224.8,170.1h6.1v-6.1
	h-6.1V170.1 M6.1,164.1h6.1V158H6.1V164.1 M60.8,164.1h6.1V158h-6.1V164.1 M79,164.1h6.1V158H79V164.1 M85.1,164.1h6.1V158h-6.1
	V164.1 M109.4,164.1h6.1V158h-6.1V164.1 M151.9,164.1h6.1V158h-6.1L151.9,164.1 M158,164.1h6.1V158H158V164.1 M194.4,164.1h6.1V158
	h-6.1V164.1 M206.6,164.1h6.1V158h-6.1V164.1 M212.7,164.1h6.1V158h-6.1V164.1 M12.1,158h6.1v-6.1h-6.1V158 M24.3,158h6.1v-6.1h-6.1
	L24.3,158 M30.4,158h6.1v-6.1h-6.1L30.4,158 M36.5,158h6.1v-6.1h-6.1V158 M42.5,158h6.1v-6.1h-6.1V158 M48.6,158h6.1v-6.1h-6.1
	L48.6,158 M54.7,158h6.1v-6.1h-6.1L54.7,158 M60.8,158h6.1v-6.1h-6.1V158 M66.8,158h6.1v-6.1h-6.1V158 M72.9,158H79v-6.1h-6.1
	L72.9,158 M85.1,158h6.1v-6.1h-6.1L85.1,158 M97.2,158h6.1v-6.1h-6.1V158 M139.8,158h6.1v-6.1h-6.1V158 M176.2,158h6.1v-6.1h-6.1
	V158 M182.3,158h6.1v-6.1h-6.1V158 M188.4,158h6.1v-6.1h-6.1V158 M200.5,158h6.1v-6.1h-6.1V158 M206.6,158h6.1v-6.1h-6.1V158
	 M212.7,158h6.1v-6.1h-6.1V158 M218.8,158h6.1v-6.1h-6.1V158 M224.8,158h6.1v-6.1h-6.1V158 M24.3,151.9h6.1v-6.1h-6.1V151.9
	 M36.5,151.9h6.1v-6.1h-6.1V151.9 M72.9,151.9H79v-6.1h-6.1V151.9 M85.1,151.9h6.1v-6.1h-6.1L85.1,151.9 M97.2,151.9h6.1v-6.1h-6.1
	V151.9 M121.5,151.9h6.1v-6.1h-6.1L121.5,151.9 M139.8,151.9h6.1v-6.1h-6.1V151.9 M151.9,151.9h6.1v-6.1h-6.1L151.9,151.9
	 M164.1,151.9h6.1v-6.1h-6.1V151.9 M176.2,151.9h6.1v-6.1h-6.1V151.9 M182.3,151.9h6.1v-6.1h-6.1V151.9 M194.4,151.9h6.1v-6.1h-6.1
	V151.9 M206.6,151.9h6.1v-6.1h-6.1V151.9 M218.7,151.9h6.1v-6.1h-6.1V151.9 M224.8,151.9h6.1v-6.1h-6.1V151.9 M6.1,145.8h6.1v-6.1
	H6.1V145.8 M18.2,145.8h6.1v-6.1h-6.1V145.8 M42.5,145.8h6.1v-6.1h-6.1V145.8 M48.6,145.8h6.1v-6.1h-6.1L48.6,145.8 M72.9,145.8H79
	v-6.1h-6.1L72.9,145.8 M79,145.8h6.1v-6.1H79V145.8 M97.2,145.8h6.1v-6.1h-6.1V145.8 M109.4,145.8h6.1v-6.1h-6.1V145.8 M133.7,145.8
	h6.1v-6.1h-6.1V145.8 M139.8,145.8h6.1v-6.1h-6.1V145.8 M145.8,145.8h6.1v-6.1h-6.1V145.8 M151.9,145.8h6.1v-6.1h-6.1L151.9,145.8
	 M158,145.8h6.1v-6.1H158V145.8 M164.1,145.8h6.1v-6.1h-6.1V145.8 M170.1,145.8h6.1v-6.1h-6.1V145.8 M176.2,145.8h6.1v-6.1h-6.1
	V145.8 M182.3,145.8h6.1v-6.1h-6.1V145.8 M224.8,145.8h6.1v-6.1h-6.1V145.8 M12.1,139.8h6.1v-6.1h-6.1V139.8 M24.3,139.8h6.1v-6.1
	h-6.1L24.3,139.8 M36.5,139.8h6.1v-6.1h-6.1V139.8 M48.6,139.8h6.1v-6.1h-6.1L48.6,139.8 M54.7,139.8h6.1v-6.1h-6.1L54.7,139.8
	 M60.8,139.8h6.1v-6.1h-6.1V139.8 M85.1,139.8h6.1v-6.1h-6.1L85.1,139.8 M91.2,139.8h6.1v-6.1h-6.1L91.2,139.8 M103.3,139.8h6.1
	v-6.1h-6.1V139.8 M109.4,139.8h6.1v-6.1h-6.1V139.8 M127.6,139.8h6.1v-6.1h-6.1V139.8 M158,139.8h6.1v-6.1H158L158,139.8
	 M164.1,139.8h6.1v-6.1h-6.1V139.8 M194.4,139.8h6.1v-6.1h-6.1V139.8 M24.3,133.7h6.1v-6.1h-6.1V133.7 M42.5,133.7h6.1v-6.1h-6.1
	V133.7 M72.9,133.7H79v-6.1h-6.1V133.7 M79,133.7h6.1v-6.1H79V133.7 M103.3,133.7h6.1v-6.1h-6.1V133.7 M109.4,133.7h6.1v-6.1h-6.1
	V133.7 M115.5,133.7h6.1v-6.1h-6.1V133.7 M139.8,133.7h6.1v-6.1h-6.1V133.7 M151.9,133.7h6.1v-6.1h-6.1L151.9,133.7 M158,133.7h6.1
	v-6.1H158V133.7 M164.1,133.7h6.1v-6.1h-6.1V133.7 M188.4,133.7h6.1v-6.1h-6.1V133.7 M194.5,133.7h6.1v-6.1h-6.1V133.7 M200.5,133.7
	h6.1v-6.1h-6.1V133.7 M212.7,133.7h6.1v-6.1h-6.1V133.7 M6.1,127.6h6.1v-6.1H6.1V127.6 M12.2,127.6h6.1v-6.1h-6.1L12.2,127.6
	 M18.2,127.6h6.1v-6.1h-6.1V127.6 M66.8,127.6h6.1v-6.1h-6.1V127.6 M72.9,127.6H79v-6.1h-6.1L72.9,127.6 M97.2,127.6h6.1v-6.1h-6.1
	V127.6 M109.4,127.6h6.1v-6.1h-6.1V127.6 M145.8,127.6h6.1v-6.1h-6.1V127.6 M164.1,127.6h6.1v-6.1h-6.1V127.6 M176.2,127.6h6.1v-6.1
	h-6.1V127.6 M182.3,127.6h6.1v-6.1h-6.1V127.6 M200.5,127.6h6.1v-6.1h-6.1V127.6 M6.1,121.5h6.1v-6.1H6.1V121.5 M24.3,121.5h6.1
	v-6.1h-6.1V121.5 M30.4,121.5h6.1v-6.1h-6.1L30.4,121.5 M36.5,121.5h6.1v-6.1h-6.1V121.5 M42.5,121.5h6.1v-6.1h-6.1V121.5
	 M54.7,121.5h6.1v-6.1h-6.1L54.7,121.5 M60.8,121.5h6.1v-6.1h-6.1V121.5 M72.9,121.5H79v-6.1h-6.1V121.5 M79,121.5h6.1v-6.1H79
	V121.5 M85.1,121.5h6.1v-6.1h-6.1V121.5 M121.5,121.5h6.1v-6.1h-6.1L121.5,121.5 M127.6,121.5h6.1v-6.1h-6.1V121.5 M145.8,121.5h6.1
	v-6.1h-6.1V121.5 M151.9,121.5h6.1v-6.1h-6.1L151.9,121.5 M164.1,121.5h6.1v-6.1h-6.1V121.5 M170.1,121.5h6.1v-6.1h-6.1V121.5
	 M182.3,121.5h6.1v-6.1h-6.1V121.5 M188.4,121.5h6.1v-6.1h-6.1V121.5 M194.4,121.5h6.1v-6.1h-6.1V121.5 M212.7,121.5h6.1v-6.1h-6.1
	V121.5 M218.7,121.5h6.1v-6.1h-6.1V121.5 M224.8,121.5h6.1v-6.1h-6.1V121.5 M6.1,115.4h6.1v-6.1H6.1V115.4 M54.7,115.4h6.1v-6.1
	h-6.1L54.7,115.4 M60.8,115.4h6.1v-6.1h-6.1V115.4 M66.8,115.4h6.1v-6.1h-6.1V115.4 M72.9,115.4H79v-6.1h-6.1L72.9,115.4 M79,115.4
	h6.1v-6.1H79V115.4 M85.1,115.4h6.1v-6.1h-6.1V115.4 M109.4,115.4h6.1v-6.1h-6.1V115.4 M133.7,115.4h6.1v-6.1h-6.1V115.4
	 M145.8,115.4h6.1v-6.1h-6.1V115.4 M151.9,115.4h6.1v-6.1h-6.1L151.9,115.4 M176.2,115.4h6.1v-6.1h-6.1V115.4 M194.4,115.4h6.1v-6.1
	h-6.1V115.4 M206.6,115.4h6.1v-6.1h-6.1V115.4 M6.1,109.4h6.1v-6.1H6.1V109.4 M12.2,109.4h6.1v-6.1h-6.1L12.2,109.4 M18.2,109.4h6.1
	v-6.1h-6.1V109.4 M24.3,109.4h6.1v-6.1h-6.1V109.4 M30.4,109.4h6.1v-6.1h-6.1L30.4,109.4 M36.5,109.4h6.1v-6.1h-6.1V109.4
	 M42.5,109.4h6.1v-6.1h-6.1V109.4 M54.7,109.4h6.1v-6.1h-6.1L54.7,109.4 M66.8,109.4h6.1v-6.1h-6.1L66.8,109.4 M79,109.4h6.1v-6.1
	H79V109.4 M85.1,109.4h6.1v-6.1h-6.1V109.4 M121.5,109.4h6.1v-6.1h-6.1L121.5,109.4 M139.8,109.4h6.1v-6.1h-6.1V109.4 M158,109.4
	h6.1v-6.1H158L158,109.4 M170.1,109.4h6.1v-6.1h-6.1V109.4 M176.2,109.4h6.1v-6.1h-6.1V109.4 M188.4,109.4h6.1v-6.1h-6.1V109.4
	 M200.5,109.4h6.1v-6.1h-6.1V109.4 M212.7,109.4h6.1v-6.1h-6.1V109.4 M218.7,109.4h6.1v-6.1h-6.1V109.4 M6.1,103.3h6.1v-6.1H6.1
	V103.3 M12.2,103.3h6.1v-6.1h-6.1L12.2,103.3 M30.4,103.3h6.1v-6.1h-6.1L30.4,103.3 M36.5,103.3h6.1v-6.1h-6.1V103.3 M48.6,103.3
	h6.1v-6.1h-6.1L48.6,103.3 M54.7,103.3h6.1v-6.1h-6.1L54.7,103.3 M72.9,103.3H79v-6.1h-6.1V103.3 M85.1,103.3h6.1v-6.1h-6.1
	L85.1,103.3 M91.2,103.3h6.1v-6.1h-6.1L91.2,103.3 M97.2,103.3h6.1v-6.1h-6.1V103.3 M103.3,103.3h6.1v-6.1h-6.1V103.3 M109.4,103.3
	h6.1v-6.1h-6.1V103.3 M115.5,103.3h6.1v-6.1h-6.1V103.3 M127.6,103.3h6.1v-6.1h-6.1V103.3 M139.8,103.3h6.1v-6.1h-6.1V103.3
	 M145.8,103.3h6.1v-6.1h-6.1V103.3 M151.9,103.3h6.1v-6.1h-6.1L151.9,103.3 M164.1,103.3h6.1v-6.1h-6.1V103.3 M182.3,103.3h6.1v-6.1
	h-6.1V103.3 M188.4,103.3h6.1v-6.1h-6.1V103.3 M194.4,103.3h6.1v-6.1h-6.1V103.3 M6.1,97.2h6.1v-6.1H6.1V97.2 M12.2,97.2h6.1v-6.1
	h-6.1L12.2,97.2 M18.2,97.2h6.1v-6.1h-6.1V97.2 M24.3,97.2h6.1v-6.1h-6.1V97.2 M30.4,97.2h6.1v-6.1h-6.1L30.4,97.2 M36.5,97.2h6.1
	v-6.1h-6.1V97.2 M42.5,97.2h6.1v-6.1h-6.1V97.2 M54.7,97.2h6.1v-6.1h-6.1L54.7,97.2 M60.8,97.2h6.1v-6.1h-6.1V97.2 M66.8,97.2h6.1
	v-6.1h-6.1V97.2 M79,97.2h6.1v-6.1H79V97.2 M85.1,97.2h6.1v-6.1h-6.1V97.2 M97.2,97.2h6.1v-6.1h-6.1V97.2 M109.4,97.2h6.1v-6.1h-6.1
	V97.2 M121.5,97.2h6.1v-6.1h-6.1L121.5,97.2 M127.6,97.2h6.1v-6.1h-6.1V97.2 M133.7,97.2h6.1v-6.1h-6.1V97.2 M139.8,97.2h6.1v-6.1
	h-6.1V97.2 M164.1,97.2h6.1v-6.1h-6.1V97.2 M170.1,97.2h6.1v-6.1h-6.1V97.2 M176.2,97.2h6.1v-6.1h-6.1V97.2 M182.3,97.2h6.1v-6.1
	h-6.1V97.2 M188.4,97.2h6.1v-6.1h-6.1V97.2 M206.6,97.2h6.1v-6.1h-6.1V97.2 M218.8,97.2h6.1v-6.1h-6.1V97.2 M224.8,97.2h6.1v-6.1
	h-6.1V97.2 M6.1,91.1h6.1v-6.1H6.1V91.1 M18.2,91.2h6.1v-6.1h-6.1V91.2 M24.3,91.2h6.1v-6.1h-6.1V91.2 M48.6,91.2h6.1v-6.1h-6.1
	V91.2 M66.8,91.2h6.1v-6.1h-6.1V91.2 M85.1,91.2h6.1v-6.1h-6.1V91.2 M91.2,91.2h6.1v-6.1h-6.1L91.2,91.2 M109.4,91.2h6.1v-6.1h-6.1
	V91.2 M115.4,91.2h6.1v-6.1h-6.1V91.2 M121.5,91.2h6.1v-6.1h-6.1V91.2 M133.7,91.2h6.1v-6.1h-6.1V91.2 M145.8,91.2h6.1v-6.1h-6.1
	V91.2 M151.9,91.2h6.1v-6.1h-6.1V91.2 M176.2,91.2h6.1v-6.1h-6.1V91.2 M182.3,91.2h6.1v-6.1h-6.1V91.2 M194.4,91.2h6.1v-6.1h-6.1
	V91.2 M206.6,91.2h6.1v-6.1h-6.1V91.2 M212.7,91.2h6.1v-6.1h-6.1V91.2 M12.1,85.1h6.1V79h-6.1V85.1 M18.2,85.1h6.1V79h-6.1V85.1
	 M24.3,85.1h6.1V79h-6.1V85.1 M30.4,85.1h6.1V79h-6.1L30.4,85.1 M42.5,85.1h6.1V79h-6.1L42.5,85.1 M48.6,85.1h6.1V79h-6.1L48.6,85.1
	 M54.7,85.1h6.1V79h-6.1L54.7,85.1 M60.8,85.1h6.1V79h-6.1V85.1 M72.9,85.1H79V79h-6.1V85.1 M79,85.1h6.1V79H79V85.1 M85.1,85.1h6.1
	V79h-6.1V85.1 M91.2,85.1h6.1V79h-6.1L91.2,85.1 M97.2,85.1h6.1V79h-6.1V85.1 M103.3,85.1h6.1V79h-6.1V85.1 M127.6,85.1h6.1V79h-6.1
	V85.1 M133.7,85.1h6.1V79h-6.1V85.1 M145.8,85.1h6.1V79h-6.1V85.1 M151.9,85.1h6.1V79h-6.1L151.9,85.1 M158,85.1h6.1V79H158V85.1
	 M164.1,85.1h6.1V79h-6.1V85.1 M170.1,85.1h6.1V79h-6.1V85.1 M188.4,85.1h6.1V79h-6.1V85.1 M194.5,85.1h6.1V79h-6.1V85.1
	 M200.5,85.1h6.1V79h-6.1V85.1 M206.6,85.1h6.1V79h-6.1V85.1 M212.7,85.1h6.1V79h-6.1V85.1 M218.8,85.1h6.1V79h-6.1V85.1
	 M224.8,85.1h6.1V79h-6.1V85.1 M12.1,79h6.1v-6.1h-6.1V79 M18.2,79h6.1v-6.1h-6.1V79 M24.3,79h6.1v-6.1h-6.1V79 M36.5,79h6.1v-6.1
	h-6.1V79 M66.8,79h6.1v-6.1h-6.1L66.8,79 M79,79h6.1v-6.1H79V79 M85.1,79h6.1v-6.1h-6.1V79 M103.3,79h6.1v-6.1h-6.1V79 M121.5,79
	h6.1v-6.1h-6.1V79 M133.7,79h6.1v-6.1h-6.1V79 M145.8,79h6.1v-6.1h-6.1V79 M164.1,79h6.1v-6.1h-6.1V79 M170.1,79h6.1v-6.1h-6.1V79
	 M188.4,79h6.1v-6.1h-6.1V79 M200.5,79h6.1v-6.1h-6.1V79 M224.8,79h6.1v-6.1h-6.1V79 M18.2,72.9h6.1v-6.1h-6.1V72.9 M24.3,72.9h6.1
	v-6.1h-6.1V72.9 M42.5,72.9h6.1v-6.1h-6.1V72.9 M48.6,72.9h6.1v-6.1h-6.1L48.6,72.9 M54.7,72.9h6.1v-6.1h-6.1L54.7,72.9 M79,72.9
	h6.1v-6.1H79V72.9 M91.1,72.9h6.1v-6.1h-6.1V72.9 M103.3,72.9h6.1v-6.1h-6.1V72.9 M127.6,72.9h6.1v-6.1h-6.1V72.9 M133.7,72.9h6.1
	v-6.1h-6.1V72.9 M139.8,72.9h6.1v-6.1h-6.1V72.9 M151.9,72.9h6.1v-6.1h-6.1V72.9 M164.1,72.9h6.1v-6.1h-6.1V72.9 M170.1,72.9h6.1
	v-6.1h-6.1V72.9 M176.2,72.9h6.1v-6.1h-6.1V72.9 M188.4,72.9h6.1v-6.1h-6.1V72.9 M194.4,72.9h6.1v-6.1h-6.1V72.9 M212.7,72.9h6.1
	v-6.1h-6.1V72.9 M218.7,72.9h6.1v-6.1h-6.1V72.9 M224.8,72.9h6.1v-6.1h-6.1V72.9 M24.3,66.8h6.1v-6.1h-6.1V66.8 M30.4,66.8h6.1v-6.1
	h-6.1L30.4,66.8 M36.5,66.8h6.1v-6.1h-6.1V66.8 M60.8,66.8h6.1v-6.1h-6.1V66.8 M66.8,66.8h6.1v-6.1h-6.1V66.8 M109.4,66.8h6.1v-6.1
	h-6.1V66.8 M121.5,66.8h6.1v-6.1h-6.1L121.5,66.8 M127.6,66.8h6.1v-6.1h-6.1V66.8 M139.8,66.8h6.1v-6.1h-6.1V66.8 M145.8,66.8h6.1
	v-6.1h-6.1V66.8 M158,66.8h6.1v-6.1H158L158,66.8 M182.3,66.8h6.1v-6.1h-6.1V66.8 M188.4,66.8h6.1v-6.1h-6.1V66.8 M194.5,66.8h6.1
	v-6.1h-6.1V66.8 M212.7,66.8h6.1v-6.1h-6.1V66.8 M218.8,66.8h6.1v-6.1h-6.1V66.8 M18.2,60.8h6.1v-6.1h-6.1V60.8 M24.3,60.8h6.1v-6.1
	h-6.1V60.8 M30.4,60.8h6.1v-6.1h-6.1L30.4,60.8 M42.5,60.8h6.1v-6.1h-6.1L42.5,60.8 M54.7,60.8h6.1v-6.1h-6.1L54.7,60.8 M66.8,60.8
	h6.1v-6.1h-6.1L66.8,60.8 M72.9,60.8H79v-6.1h-6.1L72.9,60.8 M79,60.8h6.1v-6.1H79V60.8 M97.2,60.8h6.1v-6.1h-6.1V60.8 M115.4,60.8
	h6.1v-6.1h-6.1V60.8 M121.5,60.8h6.1v-6.1h-6.1V60.8 M151.9,60.8h6.1v-6.1h-6.1V60.8 M158,60.8h6.1v-6.1H158V60.8 M176.2,60.8h6.1
	v-6.1h-6.1V60.8 M182.3,60.8h6.1v-6.1h-6.1V60.8 M188.4,60.8h6.1v-6.1h-6.1V60.8 M194.5,60.8h6.1v-6.1h-6.1V60.8 M212.7,60.8h6.1
	v-6.1h-6.1V60.8 M218.8,60.8h6.1v-6.1h-6.1V60.8 M224.8,60.8h6.1v-6.1h-6.1V60.8 M54.7,54.7h6.1v-6.1h-6.1V54.7 M66.8,54.7h6.1v-6.1
	h-6.1L66.8,54.7 M72.9,54.7H79v-6.1h-6.1L72.9,54.7 M79,54.7h6.1v-6.1H79V54.7 M91.1,54.7h6.1v-6.1h-6.1V54.7 M103.3,54.7h6.1v-6.1
	h-6.1V54.7 M109.4,54.7h6.1v-6.1h-6.1V54.7 M115.4,54.7h6.1v-6.1h-6.1V54.7 M151.9,54.7h6.1v-6.1h-6.1L151.9,54.7 M176.2,54.7h6.1
	v-6.1h-6.1V54.7 M6.1,48.6h6.1v-6.1H6.1V48.6 M12.2,48.6h6.1v-6.1h-6.1L12.2,48.6 M18.2,48.6h6.1v-6.1h-6.1V48.6 M24.3,48.6h6.1
	v-6.1h-6.1V48.6 M30.4,48.6h6.1v-6.1h-6.1L30.4,48.6 M36.5,48.6h6.1v-6.1h-6.1V48.6 M42.5,48.6h6.1v-6.1h-6.1V48.6 M54.7,48.6h6.1
	v-6.1h-6.1L54.7,48.6 M66.8,48.6h6.1v-6.1h-6.1L66.8,48.6 M79,48.6h6.1v-6.1H79V48.6 M91.1,48.6h6.1v-6.1h-6.1V48.6 M103.3,48.6h6.1
	v-6.1h-6.1V48.6 M115.4,48.6h6.1v-6.1h-6.1V48.6 M127.6,48.6h6.1v-6.1h-6.1V48.6 M139.7,48.6h6.1v-6.1h-6.1V48.6 M151.9,48.6h6.1
	v-6.1h-6.1L151.9,48.6 M164.1,48.6h6.1v-6.1h-6.1V48.6 M176.2,48.6h6.1v-6.1h-6.1V48.6 M188.4,48.6h6.1v-6.1h-6.1V48.6 M194.4,48.6
	h6.1v-6.1h-6.1V48.6 M200.5,48.6h6.1v-6.1h-6.1V48.6 M206.6,48.6h6.1v-6.1h-6.1V48.6 M212.7,48.6h6.1v-6.1h-6.1V48.6 M218.7,48.6
	h6.1v-6.1h-6.1V48.6 M224.8,48.6h6.1v-6.1h-6.1V48.6 M6.1,42.5h6.1v-6.1H6.1V42.5 M42.5,42.5h6.1v-6.1h-6.1V42.5 M54.7,42.5h6.1
	v-6.1h-6.1L54.7,42.5 M66.8,42.5h6.1v-6.1h-6.1L66.8,42.5 M72.9,42.5H79v-6.1h-6.1L72.9,42.5 M91.1,42.5h6.1v-6.1h-6.1L91.1,42.5
	 M97.2,42.5h6.1v-6.1h-6.1V42.5 M103.3,42.5h6.1v-6.1h-6.1V42.5 M109.4,42.5h6.1v-6.1h-6.1V42.5 M121.5,42.5h6.1v-6.1h-6.1V42.5
	 M127.6,42.5h6.1v-6.1h-6.1V42.5 M133.7,42.5h6.1v-6.1h-6.1V42.5 M139.8,42.5h6.1v-6.1h-6.1V42.5 M145.8,42.5h6.1v-6.1h-6.1V42.5
	 M151.9,42.5h6.1v-6.1h-6.1L151.9,42.5 M158,42.5h6.1v-6.1H158V42.5 M164.1,42.5h6.1v-6.1h-6.1V42.5 M170.1,42.5h6.1v-6.1h-6.1V42.5
	 M176.2,42.5h6.1v-6.1h-6.1V42.5 M188.4,42.5h6.1v-6.1h-6.1V42.5 M224.8,42.5h6.1v-6.1h-6.1V42.5 M6.1,36.5h6.1v-6.1H6.1V36.5
	 M18.2,36.5h6.1v-6.1h-6.1V36.5 M24.3,36.5h6.1v-6.1h-6.1V36.5 M30.4,36.5h6.1v-6.1h-6.1L30.4,36.5 M42.5,36.5h6.1v-6.1h-6.1
	L42.5,36.5 M79,36.5h6.1v-6.1H79V36.5 M103.3,36.5h6.1v-6.1h-6.1V36.5 M121.5,36.5h6.1v-6.1h-6.1V36.5 M145.8,36.5h6.1v-6.1h-6.1
	V36.5 M164.1,36.5h6.1v-6.1h-6.1V36.5 M176.2,36.5h6.1v-6.1h-6.1V36.5 M188.4,36.5h6.1v-6.1h-6.1V36.5 M200.5,36.5h6.1v-6.1h-6.1
	V36.5 M206.6,36.5h6.1v-6.1h-6.1V36.5 M212.7,36.5h6.1v-6.1h-6.1V36.5 M224.8,36.5h6.1v-6.1h-6.1V36.5 M6.1,30.4h6.1v-6.1H6.1V30.4
	 M18.2,30.4h6.1v-6.1h-6.1V30.4 M24.3,30.4h6.1v-6.1h-6.1V30.4 M30.4,30.4h6.1v-6.1h-6.1L30.4,30.4 M42.5,30.4h6.1v-6.1h-6.1
	L42.5,30.4 M60.8,30.4h6.1v-6.1h-6.1L60.8,30.4 M66.8,30.4h6.1v-6.1h-6.1V30.4 M79,30.4h6.1v-6.1H79V30.4 M85.1,30.4h6.1v-6.1h-6.1
	V30.4 M97.2,30.4h6.1v-6.1h-6.1V30.4 M109.4,30.4h6.1v-6.1h-6.1V30.4 M115.4,30.4h6.1v-6.1h-6.1V30.4 M127.6,30.4h6.1v-6.1h-6.1
	V30.4 M151.9,30.4h6.1v-6.1h-6.1V30.4 M158,30.4h6.1v-6.1H158V30.4 M164.1,30.4h6.1v-6.1h-6.1V30.4 M170.1,30.4h6.1v-6.1h-6.1V30.4
	 M188.4,30.4h6.1v-6.1h-6.1V30.4 M200.5,30.4h6.1v-6.1h-6.1V30.4 M206.6,30.4h6.1v-6.1h-6.1V30.4 M212.7,30.4h6.1v-6.1h-6.1V30.4
	 M224.8,30.4h6.1v-6.1h-6.1V30.4 M6.1,24.3h6.1v-6.1H6.1V24.3 M18.2,24.3h6.1v-6.1h-6.1V24.3 M24.3,24.3h6.1v-6.1h-6.1V24.3
	 M30.4,24.3h6.1v-6.1h-6.1L30.4,24.3 M42.5,24.3h6.1v-6.1h-6.1L42.5,24.3 M54.7,24.3h6.1v-6.1h-6.1L54.7,24.3 M72.9,24.3H79v-6.1
	h-6.1V24.3 M79,24.3h6.1v-6.1H79V24.3 M103.3,24.3h6.1v-6.1h-6.1V24.3 M115.4,24.3h6.1v-6.1h-6.1V24.3 M121.5,24.3h6.1v-6.1h-6.1
	L121.5,24.3 M133.7,24.3h6.1v-6.1h-6.1V24.3 M145.8,24.3h6.1v-6.1h-6.1V24.3 M164.1,24.3h6.1v-6.1h-6.1V24.3 M170.1,24.3h6.1v-6.1
	h-6.1V24.3 M176.2,24.3h6.1v-6.1h-6.1V24.3 M188.4,24.3h6.1v-6.1h-6.1V24.3 M200.5,24.3h6.1v-6.1h-6.1V24.3 M206.6,24.3h6.1v-6.1
	h-6.1V24.3 M212.7,24.3h6.1v-6.1h-6.1V24.3 M224.8,24.3h6.1v-6.1h-6.1V24.3 M6.1,18.2h6.1v-6.1H6.1V18.2 M42.5,18.2h6.1v-6.1h-6.1
	V18.2 M54.7,18.2h6.1v-6.1h-6.1L54.7,18.2 M60.8,18.2h6.1v-6.1h-6.1V18.2 M66.8,18.2h6.1v-6.1h-6.1V18.2 M79,18.2h6.1v-6.1H79V18.2
	 M97.2,18.2h6.1v-6.1h-6.1V18.2 M109.4,18.2h6.1v-6.1h-6.1V18.2 M115.4,18.2h6.1v-6.1h-6.1V18.2 M121.5,18.2h6.1v-6.1h-6.1
	L121.5,18.2 M127.6,18.2h6.1v-6.1h-6.1V18.2 M133.7,18.2h6.1v-6.1h-6.1V18.2 M158,18.2h6.1v-6.1H158L158,18.2 M164.1,18.2h6.1v-6.1
	h-6.1V18.2 M170.1,18.2h6.1v-6.1h-6.1V18.2 M188.4,18.2h6.1v-6.1h-6.1V18.2 M224.8,18.2h6.1v-6.1h-6.1V18.2 M6.1,12.1h6.1V6.1H6.1
	V12.1 M12.2,12.2h6.1V6.1h-6.1L12.2,12.2 M18.2,12.2h6.1V6.1h-6.1V12.2 M24.3,12.2h6.1V6.1h-6.1V12.2 M30.4,12.2h6.1V6.1h-6.1
	L30.4,12.2 M36.5,12.2h6.1V6.1h-6.1V12.2 M42.5,12.2h6.1V6.1h-6.1V12.2 M54.7,12.2h6.1V6.1h-6.1L54.7,12.2 M60.8,12.2h6.1V6.1h-6.1
	V12.2 M72.9,12.2H79V6.1h-6.1V12.2 M79,12.2h6.1V6.1H79V12.2 M97.2,12.2h6.1V6.1h-6.1V12.2 M121.5,12.2h6.1V6.1h-6.1V12.2
	 M127.6,12.2h6.1V6.1h-6.1V12.2 M133.7,12.2h6.1V6.1h-6.1V12.2 M139.8,12.2h6.1V6.1h-6.1V12.2 M158,12.2h6.1V6.1H158L158,12.2
	 M164.1,12.2h6.1V6.1h-6.1V12.2 M176.2,12.2h6.1V6.1h-6.1V12.2 M188.4,12.2h6.1V6.1h-6.1V12.2 M194.4,12.2h6.1V6.1h-6.1V12.2
	 M200.5,12.2h6.1V6.1h-6.1V12.2 M206.6,12.2h6.1V6.1h-6.1V12.2 M212.7,12.2h6.1V6.1h-6.1V12.2 M218.8,12.2h6.1V6.1h-6.1V12.2
	 M224.8,12.2h6.1V6.1h-6.1V12.2L224.8,12.2z"/>
<circle class="st0" cx="121.6" cy="124.9" r="51.4"/>
<path class="st2" d="M114.6,139.2c-16,5.6-12.9,18.2-12.9,18.2c0,1.4,1,2.7,2.4,2.8c0,0,20,4.5,38.3-0.7c3.8-1.1,0.2-13.7,0.2-13.7
	c2.6-4,9.2-18.6,10.7-29.8c1.1-8.2-2-30.5-6.4-31c-7.3-0.7-8.4,3.1-8.4,7.5c0,0,4.6,10,5.2,17.3c0.7,8.1-7.1,28.3-7.1,28.3
	S122.4,136.5,114.6,139.2z"/>
<path class="st3" d="M107.4,128.6"/>
<rect x="68.1" y="67.2" class="st4" width="90.2" height="91.3"/>
<path class="st1" d="M93.8,138.3c0.7,0,1.2-0.5,1.2-1.2c0,0,0-0.1,0-0.1l0,0l-0.1-2.6c0-0.7-0.6-1.2-1.2-1.2c0,0,0,0,0,0l-2.6,0.1
	c-0.7,0-1.2,0.6-1.2,1.2c0,0,0,0,0,0l0.1,2.6c0,0.7,0.6,1.2,1.2,1.2c0,0,0,0,0,0l0,0L93.8,138.3z"/>
<path class="st1" d="M84.9,121.9l2.9-0.1c0.6,0,1.1-0.5,1.2-1.1c0-0.9,0.4-1.7,0.9-2.4c0.5-0.5,1.2-0.8,1.9-0.7
	c0.8-0.1,1.5,0.2,2.1,0.7c0.5,0.5,0.8,1.2,0.8,1.9c0,0.4-0.1,0.7-0.2,1.1c-0.5,0.7-1.1,1.4-1.7,1.9c-1,0.9-1.9,2-2.5,3.2
	c-0.5,1.5-0.7,3-0.6,4.6c0,0.7,0.6,1.2,1.2,1.2c0,0,0,0,0,0l2.6-0.1c0.7,0,1.2-0.6,1.2-1.2c0,0,0,0,0,0c-0.1-0.8,0-1.7,0.2-2.5
	c0.5-0.8,1.1-1.5,1.8-2c1.1-0.9,2-2,2.6-3.2c0.5-1,0.7-2.1,0.7-3.3c0-2-1-3.8-2.5-5c-1.7-1.3-3.8-2-5.9-1.8c-2.1,0-4.1,0.8-5.6,2.2
	c-1.5,1.4-2.3,3.4-2.4,5.4c0,0.7,0.5,1.2,1.1,1.3c0,0,0,0,0,0L84.9,121.9L84.9,121.9z"/>
<path class="st0" d="M140.3,116.2v11.1c0.6,9.9-7,18.4-16.9,19c-9.9,0.6-18.4-7-19-16.9c0-0.7,0-1.4,0-2.1v-11.1
	c4.4-1.1,21.1,2.7,25.6,2.4C137.5,118.2,133,114.4,140.3,116.2z M137.6,128.4c0.6,0,1.1-0.5,1.1-1.1c0-0.6-0.5-1.1-1.1-1.1h-2.5
	c-0.6,0-1.1,0.5-1.1,1.1s0.5,1.1,1.1,1.1l0,0H137.6z M136.1,123.6c0.4-0.4,0.4-1.1,0-1.5l0,0c-1.9-1.9-4.9-1.9-6.8,0c0,0,0,0,0,0
	c-0.4,0.4-0.4,1.1,0,1.5c0.4,0.4,1.1,0.4,1.5,0l0.1,0c1-1,2.7-1,3.7,0C134.9,124,135.6,124,136.1,123.6L136.1,123.6L136.1,123.6z
	 M115.5,123.6c0.4-0.4,0.4-1.1,0-1.5c-1.9-1.9-4.9-1.9-6.8,0c0,0,0,0,0,0c-0.5,0.4-0.5,1.1-0.1,1.5c0.4,0.5,1.1,0.5,1.5,0.1
	c0,0,0,0,0,0l0,0c1-1,2.7-1,3.7,0C114.4,124,115.1,124,115.5,123.6L115.5,123.6z M110.7,127.3c0-0.6-0.5-1.1-1.1-1.1h-2.4
	c-0.6,0-1.1,0.5-1.1,1.1c0,0.6,0.5,1.1,1.1,1.1l0,0h2.5C110.2,128.4,110.7,127.9,110.7,127.3z"/>
<path class="st1" d="M136.1,122c0.4,0.4,0.4,1.1-0.1,1.5c-0.4,0.4-1.1,0.4-1.5,0c-1-1-2.7-1-3.7,0c-0.4,0.5-1.1,0.5-1.5,0.1
	c-0.5-0.4-0.5-1.1-0.1-1.5c0,0,0,0,0,0l0.1,0C131.1,120.2,134.2,120.2,136.1,122C136.1,122,136.1,122,136.1,122z"/>
<path class="st0" d="M145.1,114.4c0,0-0.2,10.9-1,14.4c-0.1,0.5-1.6,4.5-1.6,0.3v-12.4l0.4,0.1c0.6,0.2,1.2-0.1,1.4-0.7
	c0.2-0.6-0.1-1.2-0.7-1.4c0,0-0.1,0-0.1,0l0,0c-1.5-0.4-3-0.8-4.6-1.2c0.4-3.7-0.6-7.4-2.8-10.4c-0.3-0.5-1-0.7-1.5-0.3
	c-0.5,0.3-0.7,1-0.3,1.5c0,0,0,0.1,0.1,0.1v0.1c1.9,2.5,2.7,5.5,2.4,8.6c-3.1-0.6-3.5,3.3-6.6,3.1c-3.6-0.2-10-1.8-13.5-1.5
	c0.1-1.9,0.6-7.6,0.9-8.7c0.2-0.6-0.2-1.2-0.8-1.3c-0.6-0.2-1.2,0.2-1.3,0.8c0,0,0,0.1,0,0.1c-0.1,0.5-1.4,8.9-1.4,8.9
	s-4.1-0.3-5.1-1.1c-0.5-0.4,0.9-7.3,3.5-10.1c0.4-0.5,0.4-1.1-0.1-1.5c-0.4-0.4-1.1-0.4-1.5,0l0,0c-3.3,3.5-3.7,9.3-3.7,11.6
	c-1.9,0.4-3.9,0.9-5.8,1.4c-0.6,0.2-0.9,0.8-0.7,1.4c0.2,0.5,0.7,0.8,1.3,0.7l0,0l0.3-0.1l0.3,10.4c0.4,4.2-0.7,2.7-1.3,1
	c-1.7-4.4-1.5-13.7-1.5-13.7c0-4.9,1.6-9.6,4.5-13.6c7.5-10.1,21.7-12.2,31.8-4.7c1.7,1.3,3.3,2.8,4.6,4.6
	C143.5,104.7,145.1,109.5,145.1,114.4z"/>
<path class="st1" d="M115.5,122c0.4,0.4,0.4,1.1,0,1.5c-0.4,0.4-1.1,0.4-1.5,0l0,0l0,0c-1-1-2.7-1-3.7,0c-0.4,0.5-1.1,0.5-1.5,0.1
	c-0.5-0.4-0.5-1.1-0.1-1.5c0,0,0,0,0,0l0.1,0C110.6,120.2,113.6,120.2,115.5,122C115.5,122,115.5,122,115.5,122z"/>
<path class="st1" d="M142.3,99.5c3.3,4.3,5,9.6,5,15c0,0,0,12-1.4,15.6c-0.6,1.6-3.6,4.9-4.2,4.9l-4.6,6.1c-7.6,8.1-20.3,8.6-28.5,1
	c-0.3-0.3-0.7-0.7-1-1l-3.7-5.3c-0.6,0-3.7-4.3-4.3-6c-1.3-3.6-2.1-15.4-2.1-15.4c0-5.4,1.7-10.6,4.9-14.9
	c8.2-11,23.8-13.3,34.8-5.1C139.2,95.9,140.9,97.6,142.3,99.5z M144.1,128.9c0.8-3.5,1-14.4,1-14.4c0-4.9-1.6-9.7-4.6-13.7
	c-7.5-10-21.8-12-31.8-4.5c-1.7,1.3-3.3,2.9-4.6,4.6c-2.9,3.9-4.5,8.7-4.5,13.6c0,0-0.1,9.4,1.5,13.7c0.6,1.7,1.7,3.2,1.3-1
	l-0.3-10.4l-0.3,0.1c-0.6,0.1-1.2-0.2-1.3-0.8c-0.1-0.5,0.2-1.1,0.7-1.3c1.9-0.6,3.8-1,5.8-1.4c0-2.2,0.4-8,3.7-11.6
	c0.4-0.5,1.1-0.5,1.5-0.1c0.5,0.4,0.5,1.1,0.1,1.5c0,0,0,0,0,0l0,0c-2.6,2.7-3.9,9.7-3.5,10.1c1,0.8,5.1,1.1,5.1,1.1
	s1.3-8.4,1.4-8.9c0.1-0.6,0.7-1,1.2-0.9s1,0.7,0.9,1.2c0,0,0,0.1,0,0.1c-0.2,1.1-0.8,6.8-0.9,8.7c3.6-0.3,10,1.3,13.5,1.5
	c3.1,0.2,3.5-3.7,6.6-3.1c0.3-3.1-0.6-6.1-2.4-8.6c-0.4-0.5-0.3-1.2,0.1-1.5c0.5-0.4,1.2-0.3,1.5,0.1v0.1c2.3,3,3.3,6.7,2.8,10.4
	c1.5,0.3,3,0.7,4.6,1.2c0.6,0.2,0.9,0.8,0.7,1.4c-0.2,0.5-0.7,0.8-1.3,0.7l-0.4-0.1v12.4C142.5,133.4,143.9,129.4,144.1,128.9
	L144.1,128.9L144.1,128.9z M140.3,127.3v-11.1c-7.4-1.8-2.8,2-10.3,2.4c-4.5,0.3-21.2-3.5-25.6-2.4v11.1c0.6,9.9,9.1,17.5,19,16.9
	C132.5,143.7,139.8,136.4,140.3,127.3L140.3,127.3L140.3,127.3z"/>
<path d="M138.7,127.3c0,0.6-0.5,1.1-1.1,1.1h-2.4c-0.6,0-1.1-0.5-1.1-1.1c0-0.6,0.5-1.1,1.1-1.1l0,0h2.5
	C138.2,126.2,138.7,126.7,138.7,127.3z"/>
<path d="M109.6,126.2c0.6,0,1.1,0.5,1.1,1.1c0,0.6-0.5,1.1-1.1,1.1h-2.5c-0.6,0-1.1-0.5-1.1-1.1c0-0.6,0.5-1.1,1.1-1.1H109.6
	L109.6,126.2z"/>
<path class="st1" d="M115,131.5c0.4,4.3,4.3,7.4,8.6,7c3.7-0.4,6.6-3.3,7-7H115z"/>
<circle class="st5" cx="108.4" cy="127.9" r="2.4"/>
<circle class="st5" cx="136.3" cy="127.6" r="2.4"/>
</svg>
