<svg id="Layer_1" data-name="Layer 1" xmlns="http://www.w3.org/2000/svg" width="25.43cm" height="27.04cm" viewBox="0 0 720.96 766.57"><defs><style>.cls-1,.cls-2{fill:none;}.cls-1{stroke:#000;stroke-miterlimit:10;stroke-width:17px;}.cls-3{fill:#fff;}.cls-4{fill:#231f20;}.cls-5{fill:#f2655f;}</style></defs><title>askv2</title><path class="cls-1" d="M3449.09,3671.08c-128.09,44.48-103.49,145.49-103.49,145.49,0,11,8.46,22.5,19.5,22.5,0,0,160.29,36.32,306-6,30.7-8.92,1.5-109.49,1.5-109.49,21-32,73.56-149.13,85.5-238.49,8.77-65.68-15.81-244.05-51-247.49-58.26-5.69-67.5,24.63-67.5,60,0,0,36.57,79.67,42,138,6,64.5-57,226.49-57,226.49S3511,3649.58,3449.09,3671.08Z" transform="translate(-3077 -3095.5)"/><path class="cls-1" d="M3391,3586.5" transform="translate(-3077 -3095.5)"/><rect class="cls-2" width="720.96" height="730"/><path d="M3282.26,3663.85a9.7,9.7,0,0,0,9.34-10.05l-0.76-20.63a9.71,9.71,0,0,0-10.05-9.34l-20.63.76a9.71,9.71,0,0,0-9.34,10.05l0.76,20.63a9.7,9.7,0,0,0,10.05,9.34Zm0,0" transform="translate(-3077 -3095.5)"/><path d="M3211.49,3532.79l22.88-.85a9.66,9.66,0,0,0,9.28-8.58c1-8.66,3.44-15.12,7.25-19.1,3.55-3.7,8.57-5.64,15.39-5.89,7.06-.26,12.52,1.48,16.78,5.36s6.34,8.66,6.58,15.1a17.85,17.85,0,0,1-1.82,8.61c-0.69,1.38-3.4,5.68-14,15.35-9.84,9-16.41,17.34-20.1,25.52-3.77,8.33-5.31,20.31-4.71,36.52a9.71,9.71,0,0,0,10.05,9.34l20.67-.76a9.71,9.71,0,0,0,9.34-10.05c-0.46-12.53.86-17.7,1.68-19.67,0.64-1.58,3.38-6.26,14.54-16.23,10.38-9.28,17.29-17.65,21.11-25.56a54.65,54.65,0,0,0,5.4-26.14c-0.61-16.48-7.36-30-20.13-40.26-12.33-9.87-28.11-14.53-46.92-13.84-17.92.66-32.88,6.57-44.4,17.52s-18,25.71-18.86,43.49a9.61,9.61,0,0,0,10,10.12h0Zm0,0" transform="translate(-3077 -3095.5)"/><path class="cls-3" d="M3654.55,3487.26v88.91a143.68,143.68,0,1,1-287.36,0v-88.74c35.4-8.94,168.68,21.49,204.81,19.24C3632.21,3502.92,3595.53,3472.43,3654.55,3487.26Zm-21.63,97.49a8.72,8.72,0,1,0,0-17.43h-19.6a8.72,8.72,0,1,0,0,17.43h19.6Zm-12.55-38.5a8.7,8.7,0,0,0,0-12.32,38.41,38.41,0,0,0-54.3,0,8.72,8.72,0,1,0,12.33,12.32,21,21,0,0,1,29.65,0A8.69,8.69,0,0,0,3620.37,3546.25Zm-164,0a8.72,8.72,0,0,0,0-12.32,38.41,38.41,0,0,0-54.3,0,8.72,8.72,0,1,0,12.33,12.32,21,21,0,0,1,29.65,0A8.69,8.69,0,0,0,3456.33,3546.25ZM3417.81,3576a8.72,8.72,0,0,0-8.72-8.72h-19.6a8.72,8.72,0,1,0,0,17.43h19.6A8.72,8.72,0,0,0,3417.81,3576Z" transform="translate(-3077 -3095.5)"/><path d="M3620.37,3533.93a8.71,8.71,0,1,1-12.32,12.32,21,21,0,0,0-29.65,0,8.72,8.72,0,1,1-12.33-12.32A38.41,38.41,0,0,1,3620.37,3533.93Z" transform="translate(-3077 -3095.5)"/><path class="cls-3" d="M3692.83,3473.11s-1.43,87.27-8.16,115.56c-0.94,3.92-12.67,35.95-12.67,2.66l0-99.38c1.14,0.32,2.29.63,3.43,1a8.71,8.71,0,1,0,4.87-16.73q-18.12-5.28-36.44-9.36c1.79-16.09,2.06-51.3-22.7-83.13a8.72,8.72,0,1,0-13.76,10.7c20,25.72,20.49,54.8,19.25,68.82-24.7-4.8-28,26.81-53,25.12-28.71-1.94-79.64-14.49-108.34-12.33,0.5-15.18,5.22-60.7,7.14-69.93a8.71,8.71,0,1,0-17.06-3.57c-0.79,3.78-11.08,71.17-11.08,71.17s-33-2.44-41-9c-3.66-3,7.2-58.55,27.77-80.58a8.71,8.71,0,1,0-12.74-11.89c-26.39,28.27-29.69,74.45-29.92,92.49q-23.31,4.83-46.31,11.49a8.71,8.71,0,1,0,4.86,16.73l2.77-.77,2.74,82.86c3.5,33.5-5.35,21.35-10.5,8-13.52-35-12.42-109.89-12.42-109.89a180.11,180.11,0,0,1,35.88-108.39,183.39,183.39,0,0,1,62.91-53.29,182.05,182.05,0,0,1,165.19-.25,183.48,183.48,0,0,1,62.75,52.68A180,180,0,0,1,3692.83,3473.11Z" transform="translate(-3077 -3095.5)"/><path d="M3456.33,3533.93a8.71,8.71,0,1,1-12.32,12.32,21,21,0,0,0-29.65,0,8.72,8.72,0,1,1-12.33-12.32A38.41,38.41,0,0,1,3456.33,3533.93Z" transform="translate(-3077 -3095.5)"/><path d="M3670.22,3353.37a197.23,197.23,0,0,1,40,119.74s-0.22,96-10.92,124.89c-4.68,12.65-29.18,39.33-34,39.33l-36.64,48.72a161.09,161.09,0,0,1-235.65,0L3363,3644c-4.81,0-29.38-34.1-34.33-48-10.41-29.2-16.52-122.89-16.52-122.89a197.34,197.34,0,0,1,39.33-118.79,200.82,200.82,0,0,1,68.93-58.39,199.41,199.41,0,0,1,181.06-.27A200.75,200.75,0,0,1,3670.22,3353.37Zm14.45,235.3c6.73-28.29,8.16-115.56,8.16-115.56a180,180,0,0,0-36.52-109.25,183.48,183.48,0,0,0-62.75-52.68,182.05,182.05,0,0,0-165.19.25,183.39,183.39,0,0,0-62.91,53.29,180.11,180.11,0,0,0-35.88,108.39S3328.48,3548,3342,3583c5.15,13.35,14,25.5,10.5-8l-2.74-82.86-2.77.77a8.71,8.71,0,1,1-4.86-16.73q23-6.69,46.31-11.49c0.23-18,3.53-64.22,29.92-92.49a8.71,8.71,0,1,1,12.74,11.89c-20.57,22-31.43,77.58-27.77,80.58,8,6.56,41,9,41,9s10.29-67.39,11.08-71.17a8.71,8.71,0,1,1,17.06,3.57c-1.92,9.23-6.64,54.75-7.14,69.93,28.7-2.16,79.63,10.39,108.34,12.33,25,1.69,28.26-29.92,53-25.12,1.24-14,.76-43.1-19.25-68.82a8.72,8.72,0,1,1,13.76-10.7c24.76,31.83,24.49,67,22.7,83.13q18.32,4.11,36.44,9.36a8.71,8.71,0,1,1-4.87,16.73c-1.14-.33-2.29-0.64-3.43-1l0,99.38C3672,3624.62,3683.73,3592.59,3684.67,3588.67Zm-30.12-12.5v-88.91c-59-14.83-22.34,15.66-82.55,19.41-36.13,2.25-169.41-28.18-204.81-19.24v88.74A143.68,143.68,0,1,0,3654.55,3576.17Z" transform="translate(-3077 -3095.5)"/><path d="M3641.64,3576a8.71,8.71,0,0,1-8.72,8.71h-19.6a8.72,8.72,0,1,1,0-17.43h19.6A8.72,8.72,0,0,1,3641.64,3576Z" transform="translate(-3077 -3095.5)"/><path d="M3409.09,3567.32a8.72,8.72,0,1,1,0,17.43h-19.6a8.72,8.72,0,1,1,0-17.43h19.6Z" transform="translate(-3077 -3095.5)"/><path class="cls-4" d="M3452,3609.33c0.85,31.14,28.4,56.14,62.3,56.14s61.45-25,62.3-56.14H3452Z" transform="translate(-3077 -3095.5)"/><circle class="cls-5" cx="322.5" cy="485.5" r="19.5"/><circle class="cls-5" cx="545.5" cy="482.5" r="19.5"/></svg>