<svg id="Layer_1" data-name="Layer 1" xmlns="http://www.w3.org/2000/svg" width="96" height="89.3" viewBox="0 0 96 89.3"><defs><style>.cls-1{fill:#467fd7;}.cls-2{fill:#467fd7;}</style></defs><title>ask_bubble _closed</title><path class="cls-1" d="M74.3,0H21.7A21.68,21.68,0,0,0,0,21.7V53.6A21.63,21.63,0,0,0,20.5,75.2v0.1H18l12,14,12-14H74.3A21.72,21.72,0,0,0,96,53.7v-32A21.74,21.74,0,0,0,74.3,0Z" transform="translate(0 0)"/><path class="cls-2" d="M91.25,32.63c0,9.18-1.51,16.63-3.37,16.63S87,40.93,87,31.75,83.63,16,87.88,16,91.25,23.44,91.25,32.63Z" transform="translate(0 0)"/></svg>